<svg xmlns="http://www.w3.org/2000/svg" width="100.65" height="100.651" viewBox="0 0 100.65 100.651">
  <path id="building-columns-solid" d="M47.846.508a6.286,6.286,0,0,1,4.954,0L96.834,19.381a6.271,6.271,0,0,1,3.676,7.04,6.5,6.5,0,0,1-6.33,5.033v1.573a4.6,4.6,0,0,1-4.718,4.718H10.829a4.829,4.829,0,0,1-4.718-4.718V31.453A6.439,6.439,0,0,1,.125,26.421a6.3,6.3,0,0,1,3.683-7.04Zm2.477,24.654a6.291,6.291,0,1,0-6.291-6.291A6.284,6.284,0,0,0,50.323,25.163ZM24.983,81.779h7.863V44.035H45.428V81.779h9.613V44.035H67.622V81.779h7.863V44.035H88.067v38.59c.118.059.236-.039.354.216l9.436,6.291a6.293,6.293,0,0,1-3.5,11.52H6.111A6.289,6.289,0,0,1,2.8,89.131l9.436-6.291c.112-.256.228-.157.167-.216V44.035H24.983Z" transform="translate(0.004)" fill="#54006b"/>
</svg>
